# xmcd
#
# Track frame offsets: 
#        150
#        20622
#        39784
#        53511
#        82963
#        99187
#        122277
#        138051
#        162591
#        180418
#        196780
#        205229
#
# Disc length: 2985 seconds
#
# Revision: 2
# Processed by: cddbd v1.5.2PL0 Copyright (c) Steve Scherf et al.
# Submitted via: ExactAudioCopyFreeDBPlugin 1.0
#
DISCID=830ba70c
DTITLE=Snowy White's Blues Agency - Change My Life
DYEAR=1989
DGENRE=Blues
TTITLE0=Woke Up This Morning
TTITLE1=The Thrill Is Gone
TTITLE2=You Know It Ain't Right
TTITLE3=Change My Life
TTITLE4=The Agency Blues
TTITLE5=Judgement Day
TTITLE6=Ooh-Wee Baby
TTITLE7=The Rest Of My Life
TTITLE8=Parchman Farm
TTITLE9=The Agency Shuffle
TTITLE10=Another Man
TTITLE11=No Place To Go
EXTD=
EXTT0=
EXTT1=
EXTT2=
EXTT3=
EXTT4=
EXTT5=
EXTT6=
EXTT7=
EXTT8=
EXTT9=
EXTT10=
EXTT11=
PLAYORDER=
